<svg width="110" height="110" viewBox="0 0 110 110" fill="none" xmlns="http://www.w3.org/2000/svg">
<path fill-rule="evenodd" clip-rule="evenodd" d="M42.6937 34.76C55.8937 17.7971 76.5188 6.875 99.6875 6.875C100.599 6.875 101.474 7.23716 102.118 7.88182C102.763 8.52648 103.125 9.40082 103.125 10.3125C103.125 33.4858 92.2029 54.1063 75.24 67.3108C75.9455 71.7303 75.6837 76.2501 74.4727 80.5586C73.2618 84.867 71.1305 88.8615 68.2259 92.2662C65.3213 95.671 61.7127 98.4051 57.6489 100.28C53.585 102.155 49.1629 103.125 44.6875 103.125C43.7758 103.125 42.9015 102.763 42.2568 102.118C41.6122 101.474 41.25 100.599 41.25 99.6875V80.7538C36.7947 77.2355 32.7674 73.2067 29.2508 68.75H10.3125C9.40082 68.75 8.52648 68.3878 7.88182 67.7432C7.23716 67.0985 6.875 66.2242 6.875 65.3125C6.87464 60.8367 7.84545 56.414 9.72044 52.3499C11.5954 48.2857 14.3299 44.6767 17.7353 41.7721C21.1406 38.8674 25.1356 36.7363 29.4446 35.5257C33.7536 34.315 38.274 34.0538 42.6937 34.76ZM68.75 30.9375C66.015 30.9375 63.3919 32.024 61.458 33.958C59.524 35.8919 58.4375 38.515 58.4375 41.25C58.4375 43.985 59.524 46.6081 61.458 48.542C63.3919 50.476 66.015 51.5625 68.75 51.5625C71.485 51.5625 74.1081 50.476 76.042 48.542C77.976 46.6081 79.0625 43.985 79.0625 41.25C79.0625 38.515 77.976 35.8919 76.042 33.958C74.1081 32.024 71.485 30.9375 68.75 30.9375Z" fill="#11721B"/>
<path d="M24.1119 79.0256C24.4739 78.7557 24.7792 78.417 25.0104 78.0291C25.2416 77.6411 25.3941 77.2115 25.4592 76.7646C25.5243 76.3177 25.5008 75.8624 25.3899 75.4246C25.2791 74.9868 25.0831 74.5751 24.8131 74.2131C24.5432 73.8511 24.2045 73.5457 23.8166 73.3146C23.4287 73.0834 22.999 72.9309 22.5521 72.8658C22.1052 72.8007 21.6499 72.8242 21.2121 72.935C20.7743 73.0459 20.3626 73.2419 20.0006 73.5118C16.4847 76.1272 13.7508 79.6541 12.0947 83.7111C10.4387 87.7681 9.92343 92.2007 10.6048 96.5294C10.7156 97.2503 11.0529 97.9174 11.5678 98.434C12.0828 98.9506 12.7487 99.29 13.4694 99.4031C17.7985 100.084 22.2313 99.568 26.2884 97.9111C30.3454 96.2542 33.8721 93.5194 36.4869 90.0027C36.7655 89.6416 36.9695 89.2287 37.087 88.788C37.2045 88.3473 37.2331 87.8876 37.1711 87.4357C37.1092 86.9839 36.958 86.5489 36.7262 86.156C36.4945 85.7632 36.1869 85.4204 35.8214 85.1476C35.4558 84.8748 35.0397 84.6775 34.5971 84.5672C34.1546 84.4568 33.6945 84.4357 33.2437 84.5049C32.7929 84.5741 32.3604 84.7324 31.9713 84.9704C31.5823 85.2085 31.2445 85.5215 30.9777 85.8914C29.3793 88.041 27.2999 89.7866 24.9059 90.9884C22.5119 92.1902 19.8698 92.8148 17.191 92.8123C17.191 87.1748 19.9044 82.1652 24.1119 79.0256Z" fill="#11721B"/>
</svg>
